<svg xmlns="http://www.w3.org/2000/svg" xmlns:xlink="http://www.w3.org/1999/xlink" width="40" zoomAndPan="magnify" viewBox="0 0 30 30.000001" height="40" preserveAspectRatio="xMidYMid meet" version="1.0"><defs><clipPath id="342f71dc31"><path d="M 0.957031 0.472656 L 29.261719 0.472656 L 29.261719 28.777344 L 0.957031 28.777344 Z M 0.957031 0.472656 " clip-rule="nonzero"/></clipPath><clipPath id="b263a3ec9e"><path d="M 14 0.472656 L 20 0.472656 L 20 28.777344 L 14 28.777344 Z M 14 0.472656 " clip-rule="nonzero"/></clipPath><clipPath id="9721f4d5b9"><path d="M 12 0.472656 L 18 0.472656 L 18 28.777344 L 12 28.777344 Z M 12 0.472656 " clip-rule="nonzero"/></clipPath><clipPath id="c3a57af439"><path d="M 7 0.472656 L 16 0.472656 L 16 28.777344 L 7 28.777344 Z M 7 0.472656 " clip-rule="nonzero"/></clipPath><clipPath id="0b418eb343"><path d="M 8 0.472656 L 15 0.472656 L 15 7 L 8 7 Z M 8 0.472656 " clip-rule="nonzero"/></clipPath><clipPath id="7108dc8cd1"><path d="M 9 0.472656 L 12 0.472656 L 12 4 L 9 4 Z M 9 0.472656 " clip-rule="nonzero"/></clipPath><clipPath id="7866ad9cdb"><path d="M 0.957031 0.472656 L 29.261719 0.472656 L 29.261719 28.777344 L 0.957031 28.777344 Z M 0.957031 0.472656 " clip-rule="nonzero"/></clipPath><clipPath id="798d7fbd38"><path d="M 6.132812 8.277344 L 25.730469 8.277344 L 25.730469 20.617188 L 6.132812 20.617188 Z M 6.132812 8.277344 " clip-rule="nonzero"/></clipPath><clipPath id="428eb6d23f"><path d="M 2 3 L 12 3 L 12 11 L 2 11 Z M 2 3 " clip-rule="nonzero"/></clipPath><clipPath id="07e7ff9954"><path d="M 1.964844 6.199219 L 9.800781 2.394531 L 12.335938 7.617188 L 4.5 11.421875 Z M 1.964844 6.199219 " clip-rule="nonzero"/></clipPath><clipPath id="e7a5e06bcf"><path d="M 1.964844 6.199219 L 9.800781 2.394531 L 12.335938 7.617188 L 4.5 11.421875 Z M 1.964844 6.199219 " clip-rule="nonzero"/></clipPath><clipPath id="1b9491d3fc"><path d="M 5 4 L 11 4 L 11 10 L 5 10 Z M 5 4 " clip-rule="nonzero"/></clipPath><clipPath id="4f97721fb9"><path d="M 3.402344 5.0625 L 8.835938 3.015625 L 10.628906 7.769531 L 5.195312 9.816406 Z M 3.402344 5.0625 " clip-rule="nonzero"/></clipPath><clipPath id="9e62274d72"><path d="M 3.402344 5.0625 L 8.835938 3.015625 L 10.628906 7.769531 L 5.195312 9.816406 Z M 3.402344 5.0625 " clip-rule="nonzero"/></clipPath><clipPath id="4a22326893"><path d="M 3.402344 5.0625 L 8.835938 3.015625 L 10.628906 7.769531 L 5.195312 9.816406 Z M 3.402344 5.0625 " clip-rule="nonzero"/></clipPath><clipPath id="be560c1276"><path d="M 3 7 L 9 7 L 9 11 L 3 11 Z M 3 7 " clip-rule="nonzero"/></clipPath><clipPath id="a1720c3ee7"><path d="M 3.007812 7.511719 L 6.425781 4.8125 L 9.125 8.226562 L 5.707031 10.925781 Z M 3.007812 7.511719 " clip-rule="nonzero"/></clipPath><clipPath id="92c44526ec"><path d="M 3.007812 7.511719 L 6.425781 4.8125 L 9.125 8.226562 L 5.707031 10.925781 Z M 3.007812 7.511719 " clip-rule="nonzero"/></clipPath><clipPath id="80b19c68da"><path d="M 6 3 L 12 3 L 12 10 L 6 10 Z M 6 3 " clip-rule="nonzero"/></clipPath><clipPath id="2d57cb9b4b"><path d="M 5.390625 4.730469 L 10.257812 3.261719 L 11.722656 8.125 L 6.859375 9.59375 Z M 5.390625 4.730469 " clip-rule="nonzero"/></clipPath><clipPath id="5677bd0c8d"><path d="M 10.015625 3.332031 L 5.152344 4.800781 L 6.621094 9.664062 L 11.484375 8.195312 Z M 10.015625 3.332031 " clip-rule="nonzero"/></clipPath></defs><g clip-path="url(#342f71dc31)"><path fill="#000000" d="M 28.882812 12.488281 C 28.535156 10.070312 27.546875 7.773438 26.03125 5.847656 L 26.019531 5.832031 C 25.578125 5.269531 25.089844 4.738281 24.566406 4.25 L 24.476562 4.167969 L 24.472656 4.167969 C 24.042969 3.773438 23.585938 3.402344 23.109375 3.066406 C 22.492188 2.625 21.835938 2.234375 21.15625 1.90625 C 20.585938 1.625 19.992188 1.382812 19.386719 1.183594 C 18.886719 1.019531 18.367188 0.882812 17.847656 0.773438 C 17.21875 0.640625 16.566406 0.554688 15.914062 0.511719 C 15.371094 0.476562 14.816406 0.472656 14.300781 0.5 C 13.429688 0.542969 12.554688 0.667969 11.707031 0.871094 C 10.839844 1.078125 9.992188 1.371094 9.183594 1.738281 C 8.785156 1.921875 8.394531 2.121094 8.023438 2.335938 C 7.695312 2.523438 7.371094 2.726562 7.054688 2.945312 C 3.238281 5.566406 0.960938 9.894531 0.960938 14.515625 C 0.960938 14.863281 0.972656 15.214844 1 15.558594 C 1.089844 16.804688 1.347656 18.03125 1.761719 19.203125 C 2.089844 20.121094 2.511719 21.007812 3.023438 21.84375 C 3.660156 22.882812 4.433594 23.839844 5.324219 24.6875 C 5.878906 25.214844 6.480469 25.699219 7.117188 26.132812 C 7.652344 26.496094 8.21875 26.828125 8.796875 27.113281 C 9.492188 27.453125 10.214844 27.738281 10.949219 27.960938 L 10.972656 27.878906 L 10.949219 27.960938 C 11.96875 28.265625 13.023438 28.453125 14.089844 28.523438 C 14.382812 28.542969 14.691406 28.550781 14.996094 28.550781 C 15.792969 28.550781 16.597656 28.484375 17.378906 28.351562 C 18.089844 28.230469 18.796875 28.050781 19.484375 27.820312 C 20.324219 27.535156 21.136719 27.171875 21.90625 26.734375 C 22.335938 26.492188 22.761719 26.21875 23.167969 25.929688 C 24.230469 25.164062 25.183594 24.253906 26 23.226562 C 27.980469 20.726562 29.03125 17.714844 29.03125 14.515625 C 29.03125 13.835938 28.980469 13.152344 28.882812 12.488281 Z M 28.882812 12.488281 " fill-opacity="1" fill-rule="nonzero"/></g><path fill="#545454" d="M 28.800781 12.5 C 28.898438 13.160156 28.945312 13.832031 28.945312 14.515625 C 28.945312 17.789062 27.820312 20.796875 25.933594 23.175781 C 25.398438 20.40625 27.300781 15.554688 28.800781 12.5 Z M 28.800781 12.5 " fill-opacity="1" fill-rule="nonzero"/><path fill="#545454" d="M 26.585938 9.871094 C 26.746094 12.335938 25.1875 16.742188 23.867188 19.910156 C 23.867188 19.910156 21.984375 12.40625 22.335938 9.871094 C 22.472656 8.894531 23.761719 6.25 24.507812 4.3125 C 25.027344 4.796875 25.511719 5.324219 25.953125 5.882812 C 26.289062 7.292969 26.507812 8.667969 26.585938 9.871094 Z M 26.585938 9.871094 " fill-opacity="1" fill-rule="nonzero"/><path fill="#545454" d="M 25.953125 5.882812 C 27.433594 7.761719 28.441406 10.023438 28.800781 12.5 C 27.304688 15.554688 25.398438 20.40625 25.933594 23.175781 C 25.128906 24.195312 24.179688 25.101562 23.117188 25.859375 C 22.632812 20.640625 19.730469 13.867188 20.304688 9.871094 C 20.421875 9.058594 22.25 5.800781 23.0625 3.132812 C 23.570312 3.492188 24.054688 3.886719 24.507812 4.3125 C 23.761719 6.25 22.476562 8.894531 22.339844 9.871094 C 21.984375 12.40625 23.871094 19.910156 23.871094 19.910156 C 25.1875 16.742188 26.746094 12.335938 26.585938 9.871094 C 26.507812 8.667969 26.289062 7.292969 25.953125 5.882812 Z M 25.953125 5.882812 " fill-opacity="1" fill-rule="nonzero"/><path fill="#545454" d="M 21.121094 1.980469 C 21.800781 2.3125 22.449219 2.699219 23.0625 3.132812 C 22.25 5.800781 20.417969 9.058594 20.300781 9.871094 C 19.726562 13.867188 22.632812 20.640625 23.117188 25.859375 C 22.714844 26.148438 22.296875 26.417969 21.863281 26.660156 C 21.429688 22.140625 18.003906 14.621094 18.515625 9.871094 C 18.640625 8.699219 20.929688 4.9375 21.121094 1.980469 Z M 21.121094 1.980469 " fill-opacity="1" fill-rule="nonzero"/><path fill="#545454" d="M 21.867188 26.660156 C 21.105469 27.09375 20.296875 27.457031 19.457031 27.738281 C 19.59375 23.679688 17.652344 16.203125 16.21875 12.167969 C 14.703125 7.898438 18.878906 4.59375 19.359375 1.261719 C 19.964844 1.460938 20.554688 1.703125 21.121094 1.980469 C 20.929688 4.933594 18.640625 8.699219 18.515625 9.871094 C 18.003906 14.621094 21.429688 22.140625 21.867188 26.660156 Z M 21.867188 26.660156 " fill-opacity="1" fill-rule="nonzero"/><g clip-path="url(#b263a3ec9e)"><path fill="#545454" d="M 16.21875 12.167969 C 17.652344 16.203125 19.59375 23.679688 19.457031 27.742188 C 18.78125 27.96875 18.082031 28.144531 17.363281 28.265625 C 17.34375 26.359375 17.078125 17.613281 14.765625 13.621094 C 13.730469 11.832031 14.019531 9.140625 14.523438 7.539062 C 15.183594 5.433594 17.585938 2.679688 17.832031 0.855469 C 18.351562 0.964844 18.863281 1.097656 19.359375 1.261719 C 18.878906 4.59375 14.703125 7.898438 16.21875 12.167969 Z M 16.21875 12.167969 " fill-opacity="1" fill-rule="nonzero"/></g><g clip-path="url(#9721f4d5b9)"><path fill="#545454" d="M 14.765625 13.621094 C 17.078125 17.613281 17.34375 26.359375 17.363281 28.265625 C 16.59375 28.398438 15.800781 28.46875 14.996094 28.46875 C 14.691406 28.46875 14.390625 28.457031 14.09375 28.4375 C 14.300781 26.351562 13.777344 18.425781 12.738281 15.652344 C 12.261719 14.375 11.6875 9.691406 12.375 7.285156 C 12.902344 5.4375 15.667969 1.683594 15.910156 0.59375 C 16.5625 0.636719 17.203125 0.726562 17.832031 0.855469 C 17.585938 2.679688 15.183594 5.433594 14.523438 7.535156 C 14.019531 9.140625 13.730469 11.832031 14.765625 13.621094 Z M 14.765625 13.621094 " fill-opacity="1" fill-rule="nonzero"/></g><g clip-path="url(#c3a57af439)"><path fill="#545454" d="M 14.996094 0.566406 C 15.300781 0.566406 15.605469 0.578125 15.910156 0.597656 C 15.671875 1.6875 12.902344 5.4375 12.375 7.285156 C 11.6875 9.691406 12.261719 14.375 12.738281 15.652344 C 13.777344 18.425781 14.300781 26.355469 14.09375 28.4375 C 13.015625 28.371094 11.972656 28.179688 10.972656 27.878906 C 11.125 25.824219 11.289062 20.613281 10.921875 17.46875 C 10.648438 15.113281 10.542969 9.660156 9.375 7.738281 C 8.707031 6.632812 7.78125 4.683594 7.101562 3.011719 C 7.414062 2.796875 7.734375 2.597656 8.066406 2.40625 C 8.769531 3.953125 9.78125 5.734375 10.378906 6.113281 C 11.445312 5.265625 14.171875 1.460938 14.304688 0.585938 C 14.535156 0.570312 14.761719 0.566406 14.996094 0.566406 Z M 14.996094 0.566406 " fill-opacity="1" fill-rule="nonzero"/></g><g clip-path="url(#0b418eb343)"><path fill="#545454" d="M 11.726562 0.953125 C 12.558594 0.75 13.421875 0.625 14.304688 0.585938 C 14.171875 1.460938 11.445312 5.265625 10.378906 6.113281 C 9.78125 5.734375 8.769531 3.953125 8.066406 2.40625 C 8.4375 2.191406 8.824219 1.996094 9.214844 1.816406 C 9.628906 2.585938 10.136719 3.355469 10.316406 3.546875 C 10.921875 3 11.511719 1.65625 11.726562 0.953125 Z M 11.726562 0.953125 " fill-opacity="1" fill-rule="nonzero"/></g><g clip-path="url(#7108dc8cd1)"><path fill="#545454" d="M 11.726562 0.953125 C 11.511719 1.65625 10.921875 3 10.316406 3.546875 C 10.136719 3.355469 9.628906 2.585938 9.214844 1.816406 C 10.015625 1.453125 10.855469 1.160156 11.726562 0.953125 Z M 11.726562 0.953125 " fill-opacity="1" fill-rule="nonzero"/></g><path fill="#545454" d="M 10.921875 17.46875 C 11.289062 20.613281 11.125 25.824219 10.972656 27.878906 C 10.234375 27.65625 9.519531 27.375 8.835938 27.039062 C 9.816406 9.492188 6.25 10.929688 5.910156 5.148438 C 5.878906 5.4375 1.675781 14.414062 1.082031 15.550781 C 1.058594 15.210938 1.042969 14.867188 1.042969 14.515625 C 1.042969 9.742188 3.445312 5.527344 7.101562 3.011719 C 7.78125 4.683594 8.703125 6.632812 9.375 7.738281 C 10.542969 9.660156 10.648438 15.113281 10.921875 17.46875 Z M 10.921875 17.46875 " fill-opacity="1" fill-rule="nonzero"/><path fill="#545454" d="M 5.910156 5.148438 C 6.25 10.929688 9.816406 9.492188 8.835938 27.039062 C 8.253906 26.75 7.695312 26.425781 7.164062 26.0625 C 7.316406 21.953125 6.382812 16.023438 5.285156 11.355469 C 4.886719 12.949219 3.015625 16.832031 1.84375 19.175781 C 1.4375 18.027344 1.175781 16.8125 1.082031 15.550781 C 1.675781 14.414062 5.878906 5.4375 5.910156 5.148438 Z M 5.910156 5.148438 " fill-opacity="1" fill-rule="nonzero"/><path fill="#545454" d="M 5.285156 11.355469 C 6.382812 16.023438 7.316406 21.953125 7.164062 26.0625 C 6.53125 25.632812 5.933594 25.152344 5.378906 24.625 C 5.390625 21.339844 5.023438 17.46875 5.023438 17.46875 C 5.023438 17.46875 4.109375 19.609375 3.09375 21.796875 C 2.589844 20.976562 2.167969 20.097656 1.84375 19.175781 C 3.015625 16.832031 4.886719 12.949219 5.285156 11.355469 Z M 5.285156 11.355469 " fill-opacity="1" fill-rule="nonzero"/><path fill="#545454" d="M 5.023438 17.46875 C 5.023438 17.46875 5.390625 21.339844 5.378906 24.625 C 4.5 23.789062 3.730469 22.839844 3.09375 21.796875 C 4.109375 19.613281 5.023438 17.46875 5.023438 17.46875 Z M 5.023438 17.46875 " fill-opacity="1" fill-rule="nonzero"/><g clip-path="url(#7866ad9cdb)"><path fill="#000000" d="M 28.882812 12.488281 C 28.535156 10.070312 27.546875 7.773438 26.03125 5.847656 L 26.019531 5.832031 C 25.578125 5.269531 25.089844 4.738281 24.566406 4.25 L 24.476562 4.167969 L 24.472656 4.167969 C 24.042969 3.773438 23.585938 3.402344 23.109375 3.066406 C 22.492188 2.625 21.835938 2.234375 21.15625 1.90625 C 20.585938 1.625 19.992188 1.382812 19.386719 1.183594 C 18.886719 1.019531 18.367188 0.882812 17.847656 0.773438 C 17.21875 0.640625 16.566406 0.554688 15.914062 0.511719 C 15.371094 0.476562 14.816406 0.472656 14.300781 0.5 C 13.429688 0.542969 12.554688 0.667969 11.707031 0.871094 C 10.839844 1.078125 9.992188 1.371094 9.183594 1.738281 C 8.785156 1.921875 8.394531 2.121094 8.023438 2.335938 C 7.695312 2.523438 7.371094 2.726562 7.054688 2.945312 C 3.238281 5.566406 0.960938 9.894531 0.960938 14.515625 C 0.960938 14.863281 0.972656 15.214844 1 15.558594 C 1.089844 16.804688 1.347656 18.03125 1.761719 19.203125 C 2.089844 20.121094 2.511719 21.007812 3.023438 21.84375 C 3.660156 22.882812 4.433594 23.839844 5.324219 24.6875 C 5.878906 25.214844 6.480469 25.699219 7.117188 26.132812 C 7.652344 26.496094 8.21875 26.828125 8.796875 27.113281 C 9.492188 27.453125 10.214844 27.738281 10.949219 27.960938 L 10.972656 27.878906 L 10.949219 27.960938 C 11.96875 28.265625 13.023438 28.453125 14.089844 28.523438 C 14.382812 28.542969 14.691406 28.550781 14.996094 28.550781 C 15.792969 28.550781 16.597656 28.484375 17.378906 28.351562 C 18.089844 28.230469 18.796875 28.050781 19.484375 27.820312 C 20.324219 27.535156 21.136719 27.171875 21.90625 26.734375 C 22.335938 26.492188 22.761719 26.21875 23.167969 25.929688 C 24.230469 25.164062 25.183594 24.253906 26 23.226562 C 27.980469 20.726562 29.03125 17.714844 29.03125 14.515625 C 29.03125 13.835938 28.980469 13.152344 28.882812 12.488281 Z M 25.878906 5.921875 C 26.210938 7.332031 26.425781 8.699219 26.503906 9.875 C 26.667969 12.429688 24.980469 16.992188 23.886719 19.644531 C 23.570312 18.324219 22.109375 12.113281 22.421875 9.882812 C 22.507812 9.261719 23.070312 7.949219 23.664062 6.5625 C 23.96875 5.851562 24.285156 5.117188 24.539062 4.457031 C 25.019531 4.914062 25.46875 5.40625 25.878906 5.921875 Z M 21.574219 18.761719 C 22.1875 21.15625 22.820312 23.632812 23.03125 25.820312 C 22.675781 26.070312 22.308594 26.308594 21.933594 26.523438 C 21.738281 24.710938 21.09375 22.457031 20.410156 20.070312 C 19.371094 16.445312 18.296875 12.695312 18.597656 9.882812 C 18.644531 9.457031 19 8.640625 19.410156 7.695312 C 20.101562 6.109375 21.039062 3.953125 21.195312 2.109375 C 21.804688 2.417969 22.402344 2.769531 22.964844 3.167969 C 22.507812 4.636719 21.753906 6.277344 21.144531 7.59375 C 20.660156 8.652344 20.273438 9.488281 20.21875 9.859375 C 19.886719 12.183594 20.707031 15.378906 21.574219 18.761719 Z M 14.839844 13.578125 C 13.753906 11.703125 14.179688 8.914062 14.605469 7.5625 C 14.902344 6.609375 15.574219 5.5 16.226562 4.429688 C 17 3.152344 17.734375 1.945312 17.902344 0.957031 C 18.363281 1.054688 18.820312 1.175781 19.265625 1.320312 C 19.070312 2.523438 18.402344 3.722656 17.691406 4.988281 C 16.457031 7.199219 15.179688 9.484375 16.140625 12.195312 C 17.558594 16.191406 19.492188 23.617188 19.375 27.679688 C 18.746094 27.886719 18.097656 28.050781 17.445312 28.167969 C 17.429688 26.726562 17.21875 17.6875 14.839844 13.578125 Z M 16.296875 12.140625 C 15.359375 9.5 16.621094 7.25 17.839844 5.074219 C 18.550781 3.800781 19.222656 2.597656 19.425781 1.375 C 19.972656 1.558594 20.511719 1.777344 21.03125 2.03125 C 20.898438 3.859375 19.953125 6.035156 19.257812 7.628906 C 18.824219 8.625 18.480469 9.414062 18.429688 9.863281 C 18.125 12.710938 19.207031 16.476562 20.25 20.117188 C 20.941406 22.527344 21.59375 24.804688 21.777344 26.617188 C 21.066406 27.015625 20.3125 27.351562 19.542969 27.621094 C 19.636719 23.523438 17.714844 16.128906 16.296875 12.140625 Z M 15.800781 0.675781 C 15.640625 1.195312 15.027344 2.214844 14.375 3.285156 C 13.535156 4.675781 12.582031 6.25 12.292969 7.261719 C 11.597656 9.699219 12.191406 14.429688 12.660156 15.679688 C 13.707031 18.484375 14.191406 26.253906 14.019531 28.347656 C 13.015625 28.28125 12.023438 28.101562 11.0625 27.816406 C 11.203125 25.847656 11.375 20.644531 11.003906 17.460938 C 10.941406 16.910156 10.886719 16.210938 10.824219 15.394531 C 10.625 12.773438 10.351562 9.1875 9.445312 7.691406 C 8.816406 6.65625 7.917969 4.792969 7.207031 3.042969 C 7.472656 2.863281 7.75 2.6875 8.027344 2.527344 C 8.746094 4.085938 9.726562 5.800781 10.335938 6.183594 L 10.386719 6.214844 L 10.429688 6.179688 C 10.929688 5.785156 11.84375 4.695312 12.761719 3.410156 C 13.464844 2.417969 14.242188 1.199219 14.371094 0.664062 C 14.832031 0.644531 15.320312 0.644531 15.800781 0.675781 Z M 10.257812 3.605469 L 10.3125 3.664062 L 10.375 3.609375 C 10.957031 3.082031 11.546875 1.796875 11.792969 1.023438 C 12.582031 0.835938 13.390625 0.71875 14.199219 0.675781 C 13.90625 1.660156 11.441406 5.117188 10.375 6.007812 C 9.792969 5.582031 8.839844 3.894531 8.171875 2.441406 C 8.496094 2.257812 8.835938 2.085938 9.179688 1.925781 C 9.578125 2.65625 10.066406 3.40625 10.257812 3.605469 Z M 9.332031 1.855469 C 10.0625 1.53125 10.824219 1.265625 11.601562 1.070312 C 11.355469 1.804688 10.839844 2.910156 10.324219 3.425781 C 10.128906 3.183594 9.707031 2.542969 9.332031 1.855469 Z M 7.066406 3.140625 C 7.777344 4.886719 8.671875 6.742188 9.300781 7.78125 C 10.1875 9.238281 10.460938 12.804688 10.660156 15.410156 C 10.71875 16.222656 10.773438 16.929688 10.839844 17.480469 C 11.207031 20.632812 11.039062 25.773438 10.898438 27.769531 C 10.222656 27.558594 9.558594 27.296875 8.921875 26.984375 C 9.570312 15.316406 8.207031 12.070312 7.113281 9.460938 C 6.574219 8.171875 6.105469 7.058594 5.996094 5.144531 L 5.828125 5.140625 C 5.769531 5.457031 2.089844 13.335938 1.148438 15.238281 C 1.136719 15 1.128906 14.757812 1.128906 14.515625 C 1.128906 9.984375 3.347656 5.738281 7.066406 3.140625 Z M 1.167969 15.570312 C 1.675781 14.582031 5.113281 7.28125 5.855469 5.527344 C 6.003906 7.246094 6.449219 8.308594 6.960938 9.527344 C 8.046875 12.113281 9.394531 15.335938 8.757812 26.90625 C 8.238281 26.640625 7.730469 26.34375 7.246094 26.019531 C 7.398438 21.742188 6.378906 15.636719 5.367188 11.335938 L 5.289062 11 L 5.203125 11.335938 C 4.792969 12.988281 2.792969 17.085938 1.855469 18.960938 C 1.488281 17.867188 1.253906 16.726562 1.167969 15.570312 Z M 5.109375 17.460938 L 5.078125 17.132812 L 4.949219 17.4375 C 4.9375 17.457031 4.0625 19.507812 3.085938 21.621094 C 2.621094 20.847656 2.234375 20.027344 1.933594 19.179688 C 2.785156 17.480469 4.703125 13.570312 5.277344 11.695312 C 6.25 15.925781 7.210938 21.753906 7.082031 25.90625 C 6.511719 25.507812 5.96875 25.066406 5.460938 24.589844 C 5.46875 21.34375 5.113281 17.5 5.109375 17.460938 Z M 3.1875 21.792969 C 3.964844 20.121094 4.683594 18.46875 4.96875 17.808594 C 5.054688 18.789062 5.292969 21.78125 5.296875 24.425781 C 4.488281 23.636719 3.78125 22.75 3.1875 21.792969 Z M 14.183594 28.359375 C 14.359375 26.246094 13.871094 18.441406 12.816406 15.621094 C 12.355469 14.386719 11.765625 9.714844 12.457031 7.308594 C 12.738281 6.316406 13.683594 4.753906 14.519531 3.371094 C 15.21875 2.21875 15.824219 1.21875 15.972656 0.683594 C 16.566406 0.726562 17.160156 0.804688 17.738281 0.921875 C 17.578125 1.878906 16.851562 3.078125 16.082031 4.34375 C 15.425781 5.421875 14.75 6.539062 14.445312 7.511719 C 14.011719 8.890625 13.578125 11.734375 14.695312 13.664062 C 17.070312 17.761719 17.261719 26.847656 17.277344 28.195312 C 16.527344 28.320312 15.761719 28.382812 14.996094 28.382812 C 14.722656 28.382812 14.449219 28.375 14.183594 28.359375 Z M 23.1875 25.707031 C 22.96875 23.53125 22.339844 21.085938 21.734375 18.71875 C 20.871094 15.355469 20.058594 12.175781 20.386719 9.882812 C 20.4375 9.535156 20.816406 8.710938 21.296875 7.664062 C 21.902344 6.355469 22.648438 4.734375 23.105469 3.269531 C 23.5625 3.597656 24 3.953125 24.410156 4.335938 C 24.148438 5.007812 23.824219 5.761719 23.511719 6.496094 C 22.910156 7.894531 22.34375 9.214844 22.253906 9.859375 C 21.902344 12.382812 23.710938 19.625 23.789062 19.933594 L 23.847656 20.175781 L 23.945312 19.945312 C 25.039062 17.324219 26.84375 12.53125 26.671875 9.867188 C 26.601562 8.78125 26.410156 7.535156 26.125 6.242188 C 27.488281 8.078125 28.382812 10.226562 28.714844 12.484375 C 27.875 14.207031 25.25 19.921875 25.847656 23.152344 C 25.074219 24.117188 24.183594 24.976562 23.1875 25.707031 Z M 25.984375 22.972656 C 25.804688 21.757812 26.039062 20.078125 26.683594 17.96875 C 27.324219 15.886719 28.210938 13.910156 28.753906 12.785156 C 28.824219 13.355469 28.863281 13.9375 28.863281 14.515625 C 28.863281 17.613281 27.867188 20.53125 25.984375 22.972656 Z M 25.984375 22.972656 " fill-opacity="1" fill-rule="nonzero"/></g><g clip-path="url(#798d7fbd38)"><path fill="#ffffff" d="M 7.917969 8.277344 C 6.9375 8.277344 6.140625 9.078125 6.140625 10.058594 L 6.140625 18.960938 C 6.140625 19.945312 6.9375 20.742188 7.917969 20.742188 L 19.492188 20.742188 C 20.472656 20.742188 21.273438 19.945312 21.273438 18.960938 L 21.273438 16.363281 L 24.277344 18.765625 C 24.4375 18.894531 24.636719 18.960938 24.835938 18.960938 C 24.964844 18.960938 25.097656 18.933594 25.21875 18.875 C 25.527344 18.726562 25.722656 18.414062 25.722656 18.070312 L 25.722656 10.949219 C 25.722656 10.609375 25.527344 10.296875 25.21875 10.144531 C 24.910156 10 24.542969 10.039062 24.277344 10.253906 L 21.273438 12.65625 L 21.273438 10.058594 C 21.273438 9.078125 20.472656 8.277344 19.492188 8.277344 Z M 7.917969 8.277344 " fill-opacity="1" fill-rule="nonzero"/></g><g clip-path="url(#428eb6d23f)"><g clip-path="url(#07e7ff9954)"><g clip-path="url(#e7a5e06bcf)"><path fill="#ffffff" d="M 11.289062 8.265625 C 11.359375 8.230469 11.398438 8.152344 11.375 8.078125 L 10.140625 3.335938 C 10.121094 3.265625 10.0625 3.21875 9.988281 3.214844 C 9.917969 3.210938 9.851562 3.25 9.828125 3.316406 C 9.828125 3.316406 9 5.453125 8.71875 6.210938 C 8.132812 5.636719 6.507812 4.113281 6.507812 4.113281 C 6.460938 4.070312 6.390625 4.054688 6.332031 4.082031 C 6.273438 4.109375 6.234375 4.167969 6.234375 4.230469 C 6.234375 4.230469 6.21875 7.066406 6.210938 7.867188 C 5.316406 7.667969 3.324219 7.335938 2.878906 7.3125 C 2.804688 7.308594 2.757812 7.316406 2.738281 7.324219 C 2.679688 7.34375 2.65625 7.378906 2.640625 7.40625 C 2.625 7.429688 2.613281 7.46875 2.625 7.519531 C 2.628906 7.535156 2.65625 7.601562 2.726562 7.691406 C 3.171875 8.269531 5.527344 10.929688 5.527344 10.929688 C 5.574219 10.984375 5.65625 11 5.722656 10.96875 Z M 11.023438 8.027344 L 5.691406 10.617188 C 5.324219 10.203125 3.828125 8.507812 3.195312 7.75 C 3.171875 7.722656 3.152344 7.695312 3.128906 7.667969 C 3.894531 7.761719 5.691406 8.070312 6.332031 8.234375 C 6.378906 8.246094 6.429688 8.238281 6.46875 8.207031 C 6.511719 8.175781 6.535156 8.128906 6.535156 8.082031 C 6.539062 7.929688 6.554688 5.550781 6.558594 4.609375 C 7.148438 5.164062 8.488281 6.425781 8.664062 6.621094 C 8.707031 6.664062 8.765625 6.683594 8.824219 6.667969 C 8.882812 6.65625 8.925781 6.609375 8.945312 6.554688 C 8.984375 6.417969 9.625 4.75 9.949219 3.910156 L 11.023438 8.027344 " fill-opacity="1" fill-rule="evenodd"/></g></g></g><g clip-path="url(#1b9491d3fc)"><g clip-path="url(#4f97721fb9)"><g clip-path="url(#9e62274d72)"><g clip-path="url(#4a22326893)"><path fill="#ffffff" d="M 5.195312 9.816406 L 6.117188 4.039062 L 10.625 7.769531 Z M 5.195312 9.816406 " fill-opacity="1" fill-rule="nonzero"/></g></g></g></g><g clip-path="url(#be560c1276)"><g clip-path="url(#a1720c3ee7)"><g clip-path="url(#92c44526ec)"><path fill="#ffffff" d="M 3.164062 7.539062 L 5.648438 10.683594 L 8.792969 8.199219 Z M 3.164062 7.539062 " fill-opacity="1" fill-rule="nonzero"/><path fill="#ffffff" d="M 8.851562 8.269531 L 5.707031 10.753906 C 5.65625 10.796875 5.601562 10.789062 5.566406 10.75 L 3.082031 7.605469 C 3.058594 7.574219 3.054688 7.527344 3.078125 7.492188 C 3.082031 7.453125 3.128906 7.433594 3.167969 7.4375 L 8.796875 8.09375 C 8.835938 8.097656 8.867188 8.121094 8.882812 8.160156 C 8.886719 8.207031 8.882812 8.246094 8.851562 8.269531 Z M 5.65625 10.542969 L 8.535156 8.269531 L 3.382812 7.667969 Z M 5.65625 10.542969 " fill-opacity="1" fill-rule="nonzero"/></g></g></g><g clip-path="url(#80b19c68da)"><g clip-path="url(#2d57cb9b4b)"><g clip-path="url(#5677bd0c8d)"><path fill="#ffffff" d="M 9.941406 3.496094 L 11.265625 7.890625 L 6.871094 9.21875 Z M 9.941406 3.496094 " fill-opacity="1" fill-rule="nonzero"/><path fill="#ffffff" d="M 6.902344 9.320312 L 11.296875 7.992188 C 11.371094 7.972656 11.398438 7.914062 11.382812 7.859375 L 10.054688 3.460938 C 10.042969 3.417969 10 3.386719 9.953125 3.382812 C 9.917969 3.363281 9.863281 3.394531 9.84375 3.433594 L 6.773438 9.152344 C 6.753906 9.191406 6.753906 9.238281 6.78125 9.277344 C 6.824219 9.3125 6.859375 9.332031 6.902344 9.320312 Z M 11.132812 7.808594 L 7.113281 9.019531 L 9.917969 3.789062 Z M 11.132812 7.808594 " fill-opacity="1" fill-rule="nonzero"/></g></g></g></svg>