<svg xmlns="http://www.w3.org/2000/svg" xmlns:xlink="http://www.w3.org/1999/xlink" width="200" zoomAndPan="magnify" viewBox="0 0 150 56.249996" height="75" preserveAspectRatio="xMidYMid meet" version="1.0"><defs><g/><clipPath id="27e645c90a"><path d="M 2.394531 6.144531 L 45.621094 6.144531 L 45.621094 49.367188 L 2.394531 49.367188 Z M 2.394531 6.144531 " clip-rule="nonzero"/></clipPath><clipPath id="873afb8c95"><path d="M 40 24 L 45.621094 24 L 45.621094 42 L 40 42 Z M 40 24 " clip-rule="nonzero"/></clipPath><clipPath id="4b9ea81f6a"><path d="M 32 10 L 45.621094 10 L 45.621094 46 L 32 46 Z M 32 10 " clip-rule="nonzero"/></clipPath><clipPath id="3f2d5607fd"><path d="M 22 6.144531 L 31 6.144531 L 31 49 L 22 49 Z M 22 6.144531 " clip-rule="nonzero"/></clipPath><clipPath id="9c99594391"><path d="M 19 6.144531 L 29 6.144531 L 29 49.367188 L 19 49.367188 Z M 19 6.144531 " clip-rule="nonzero"/></clipPath><clipPath id="2e23400145"><path d="M 11 6.144531 L 26 6.144531 L 26 49.367188 L 11 49.367188 Z M 11 6.144531 " clip-rule="nonzero"/></clipPath><clipPath id="9ab340fa2b"><path d="M 13 6.144531 L 23 6.144531 L 23 15 L 13 15 Z M 13 6.144531 " clip-rule="nonzero"/></clipPath><clipPath id="eb9f9ff59d"><path d="M 15 6.144531 L 19 6.144531 L 19 11 L 15 11 Z M 15 6.144531 " clip-rule="nonzero"/></clipPath><clipPath id="e169e474e6"><path d="M 2.394531 10 L 19 10 L 19 49 L 2.394531 49 Z M 2.394531 10 " clip-rule="nonzero"/></clipPath><clipPath id="f12c0516ff"><path d="M 2.394531 13 L 15 13 L 15 48 L 2.394531 48 Z M 2.394531 13 " clip-rule="nonzero"/></clipPath><clipPath id="124c5afaf8"><path d="M 2.394531 6.144531 L 45.621094 6.144531 L 45.621094 49.367188 L 2.394531 49.367188 Z M 2.394531 6.144531 " clip-rule="nonzero"/></clipPath><clipPath id="46c020f4c1"><path d="M 10.363281 18.15625 L 40.621094 18.15625 L 40.621094 36.886719 L 10.363281 36.886719 Z M 10.363281 18.15625 " clip-rule="nonzero"/></clipPath><clipPath id="2437bd7628"><path d="M 4 10 L 19 10 L 19 23 L 4 23 Z M 4 10 " clip-rule="nonzero"/></clipPath><clipPath id="6f3b364244"><path d="M 3.949219 14.957031 L 15.933594 9.140625 L 19.8125 17.128906 L 7.828125 22.945312 Z M 3.949219 14.957031 " clip-rule="nonzero"/></clipPath><clipPath id="8e5c8d701e"><path d="M 3.949219 14.957031 L 15.933594 9.140625 L 19.8125 17.128906 L 7.828125 22.945312 Z M 3.949219 14.957031 " clip-rule="nonzero"/></clipPath><clipPath id="02612c5c43"><path d="M 9 11 L 19 11 L 19 21 L 9 21 Z M 9 11 " clip-rule="nonzero"/></clipPath><clipPath id="55c8d0690f"><path d="M 6.15625 13.210938 L 15.160156 9.816406 L 18.03125 17.433594 L 9.03125 20.828125 Z M 6.15625 13.210938 " clip-rule="nonzero"/></clipPath><clipPath id="bff02727c7"><path d="M 6.15625 13.210938 L 15.160156 9.816406 L 18.03125 17.433594 L 9.03125 20.828125 Z M 6.15625 13.210938 " clip-rule="nonzero"/></clipPath><clipPath id="8e0a18fb96"><path d="M 6.15625 13.210938 L 15.160156 9.816406 L 18.03125 17.433594 L 9.03125 20.828125 Z M 6.15625 13.210938 " clip-rule="nonzero"/></clipPath><clipPath id="d0af301a69"><path d="M 5 17 L 15 17 L 15 22 L 5 22 Z M 5 17 " clip-rule="nonzero"/></clipPath><clipPath id="99e3231c23"><path d="M 5.550781 16.976562 L 10.777344 12.847656 L 14.910156 18.074219 L 9.683594 22.203125 Z M 5.550781 16.976562 " clip-rule="nonzero"/></clipPath><clipPath id="5cd78053dd"><path d="M 5.550781 16.976562 L 10.777344 12.847656 L 14.910156 18.074219 L 9.683594 22.203125 Z M 5.550781 16.976562 " clip-rule="nonzero"/></clipPath><clipPath id="f8aa731e27"><path d="M 5 16 L 15 16 L 15 23 L 5 23 Z M 5 16 " clip-rule="nonzero"/></clipPath><clipPath id="d3b4695c14"><path d="M 5.550781 16.976562 L 10.777344 12.847656 L 14.910156 18.074219 L 9.683594 22.203125 Z M 5.550781 16.976562 " clip-rule="nonzero"/></clipPath><clipPath id="dd18467cea"><path d="M 5.550781 16.976562 L 10.777344 12.847656 L 14.910156 18.074219 L 9.683594 22.203125 Z M 5.550781 16.976562 " clip-rule="nonzero"/></clipPath><clipPath id="c73777592c"><path d="M 11 10 L 19 10 L 19 20 L 11 20 Z M 11 10 " clip-rule="nonzero"/></clipPath><clipPath id="ef36f3d11b"><path d="M 9.222656 12.691406 L 16.308594 10.554688 L 18.445312 17.640625 L 11.363281 19.777344 Z M 9.222656 12.691406 " clip-rule="nonzero"/></clipPath><clipPath id="0bc21cfc64"><path d="M 16.332031 10.546875 L 9.246094 12.683594 L 11.382812 19.769531 L 18.46875 17.632812 Z M 16.332031 10.546875 " clip-rule="nonzero"/></clipPath></defs><g clip-path="url(#27e645c90a)"><path fill="#000000" d="M 45.386719 24.640625 C 44.847656 20.917969 43.328125 17.382812 40.996094 14.417969 L 40.980469 14.394531 C 40.296875 13.53125 39.542969 12.710938 38.738281 11.960938 L 38.597656 11.828125 L 38.597656 11.832031 C 37.9375 11.226562 37.230469 10.65625 36.5 10.132812 C 35.546875 9.457031 34.535156 8.859375 33.492188 8.347656 C 32.613281 7.917969 31.695312 7.542969 30.765625 7.238281 C 29.996094 6.984375 29.199219 6.773438 28.398438 6.605469 C 27.425781 6.40625 26.425781 6.269531 25.421875 6.207031 C 24.585938 6.152344 23.730469 6.144531 22.9375 6.1875 C 21.59375 6.25 20.25 6.441406 18.945312 6.757812 C 17.613281 7.078125 16.304688 7.527344 15.058594 8.09375 C 14.445312 8.375 13.847656 8.683594 13.273438 9.011719 C 12.769531 9.300781 12.269531 9.617188 11.785156 9.949219 C 5.910156 13.984375 2.402344 20.644531 2.402344 27.761719 C 2.402344 28.296875 2.421875 28.835938 2.460938 29.367188 C 2.601562 31.289062 3 33.175781 3.636719 34.976562 C 4.136719 36.390625 4.789062 37.757812 5.578125 39.039062 C 6.558594 40.644531 7.75 42.117188 9.117188 43.417969 C 9.972656 44.230469 10.902344 44.980469 11.878906 45.644531 C 12.703125 46.203125 13.574219 46.710938 14.46875 47.152344 C 15.535156 47.679688 16.648438 48.117188 17.777344 48.457031 L 17.816406 48.332031 L 17.777344 48.457031 C 19.347656 48.925781 20.972656 49.21875 22.613281 49.320312 C 23.066406 49.351562 23.535156 49.367188 24.007812 49.367188 C 25.238281 49.367188 26.472656 49.261719 27.671875 49.058594 C 28.769531 48.871094 29.859375 48.59375 30.914062 48.238281 C 32.207031 47.804688 33.460938 47.242188 34.644531 46.570312 C 35.308594 46.195312 35.960938 45.777344 36.585938 45.328125 C 38.226562 44.152344 39.691406 42.753906 40.949219 41.171875 C 44 37.324219 45.609375 32.6875 45.609375 27.761719 C 45.609375 26.714844 45.535156 25.664062 45.386719 24.640625 Z M 45.386719 24.640625 " fill-opacity="1" fill-rule="nonzero"/></g><g clip-path="url(#873afb8c95)"><path fill="#545454" d="M 45.257812 24.660156 C 45.40625 25.671875 45.480469 26.710938 45.480469 27.761719 C 45.480469 32.796875 43.75 37.429688 40.847656 41.089844 C 40.023438 36.832031 42.953125 29.363281 45.257812 24.660156 Z M 45.257812 24.660156 " fill-opacity="1" fill-rule="nonzero"/></g><path fill="#545454" d="M 41.851562 20.613281 C 42.09375 24.40625 39.699219 31.1875 37.664062 36.066406 C 37.664062 36.066406 34.765625 24.511719 35.308594 20.613281 C 35.519531 19.105469 37.5 15.039062 38.648438 12.054688 C 39.453125 12.800781 40.195312 13.613281 40.878906 14.472656 C 41.390625 16.644531 41.730469 18.757812 41.851562 20.613281 Z M 41.851562 20.613281 " fill-opacity="1" fill-rule="nonzero"/><g clip-path="url(#4b9ea81f6a)"><path fill="#545454" d="M 40.878906 14.476562 C 43.15625 17.363281 44.707031 20.847656 45.257812 24.660156 C 42.953125 29.363281 40.023438 36.832031 40.847656 41.089844 C 39.601562 42.660156 38.144531 44.054688 36.511719 45.222656 C 35.765625 37.1875 31.292969 26.761719 32.175781 20.613281 C 32.355469 19.359375 35.171875 14.34375 36.425781 10.238281 C 37.207031 10.792969 37.949219 11.402344 38.652344 12.054688 C 37.503906 15.039062 35.523438 19.105469 35.3125 20.613281 C 34.765625 24.511719 37.667969 36.066406 37.667969 36.066406 C 39.699219 31.1875 42.09375 24.40625 41.851562 20.613281 C 41.730469 18.757812 41.390625 16.644531 40.878906 14.476562 Z M 40.878906 14.476562 " fill-opacity="1" fill-rule="nonzero"/></g><path fill="#545454" d="M 33.4375 8.464844 C 34.484375 8.976562 35.480469 9.570312 36.425781 10.238281 C 35.171875 14.34375 32.355469 19.359375 32.175781 20.613281 C 31.292969 26.761719 35.765625 37.1875 36.511719 45.226562 C 35.890625 45.667969 35.246094 46.082031 34.582031 46.457031 C 33.910156 39.5 28.640625 27.921875 29.425781 20.613281 C 29.617188 18.804688 33.144531 13.015625 33.4375 8.464844 Z M 33.4375 8.464844 " fill-opacity="1" fill-rule="nonzero"/><path fill="#545454" d="M 34.582031 46.457031 C 33.410156 47.121094 32.167969 47.679688 30.875 48.117188 C 31.085938 41.867188 28.09375 30.359375 25.890625 24.148438 C 23.558594 17.578125 29.984375 12.484375 30.726562 7.359375 C 31.660156 7.667969 32.5625 8.035156 33.4375 8.464844 C 33.144531 13.011719 29.621094 18.804688 29.425781 20.613281 C 28.640625 27.921875 33.910156 39.5 34.582031 46.457031 Z M 34.582031 46.457031 " fill-opacity="1" fill-rule="nonzero"/><g clip-path="url(#3f2d5607fd)"><path fill="#545454" d="M 25.890625 24.148438 C 28.09375 30.359375 31.085938 41.867188 30.871094 48.117188 C 29.832031 48.46875 28.757812 48.742188 27.652344 48.929688 C 27.625 45.992188 27.214844 32.53125 23.65625 26.386719 C 22.0625 23.628906 22.507812 19.488281 23.28125 17.019531 C 24.296875 13.785156 27.996094 9.539062 28.375 6.734375 C 29.171875 6.898438 29.960938 7.109375 30.726562 7.359375 C 29.984375 12.488281 23.558594 17.578125 25.890625 24.148438 Z M 25.890625 24.148438 " fill-opacity="1" fill-rule="nonzero"/></g><g clip-path="url(#9c99594391)"><path fill="#545454" d="M 23.65625 26.382812 C 27.214844 32.53125 27.625 45.992188 27.652344 48.929688 C 26.464844 49.132812 25.25 49.238281 24.007812 49.238281 C 23.539062 49.238281 23.078125 49.222656 22.621094 49.191406 C 22.9375 45.984375 22.128906 33.78125 20.53125 29.507812 C 19.796875 27.546875 18.914062 20.332031 19.972656 16.628906 C 20.78125 13.789062 25.046875 8.011719 25.414062 6.332031 C 26.417969 6.398438 27.40625 6.53125 28.371094 6.730469 C 27.996094 9.539062 24.292969 13.78125 23.28125 17.019531 C 22.507812 19.488281 22.0625 23.628906 23.65625 26.382812 Z M 23.65625 26.382812 " fill-opacity="1" fill-rule="nonzero"/></g><g clip-path="url(#2e23400145)"><path fill="#545454" d="M 24.007812 6.289062 C 24.480469 6.289062 24.949219 6.304688 25.414062 6.335938 C 25.046875 8.011719 20.785156 13.789062 19.972656 16.628906 C 18.914062 20.332031 19.796875 27.546875 20.53125 29.511719 C 22.132812 33.78125 22.9375 45.984375 22.621094 49.195312 C 20.960938 49.089844 19.351562 48.796875 17.816406 48.332031 C 18.046875 45.171875 18.300781 37.148438 17.734375 32.308594 C 17.3125 28.679688 17.152344 20.289062 15.355469 17.328125 C 14.324219 15.628906 12.902344 12.628906 11.855469 10.054688 C 12.335938 9.726562 12.832031 9.414062 13.339844 9.121094 C 14.425781 11.503906 15.980469 14.246094 16.902344 14.828125 C 18.542969 13.523438 22.742188 7.667969 22.941406 6.316406 C 23.296875 6.296875 23.648438 6.289062 24.007812 6.289062 Z M 24.007812 6.289062 " fill-opacity="1" fill-rule="nonzero"/></g><g clip-path="url(#9ab340fa2b)"><path fill="#545454" d="M 18.976562 6.882812 C 20.257812 6.574219 21.585938 6.378906 22.941406 6.316406 C 22.738281 7.667969 18.542969 13.523438 16.902344 14.828125 C 15.980469 14.246094 14.425781 11.503906 13.339844 9.121094 C 13.914062 8.792969 14.503906 8.488281 15.113281 8.210938 C 15.746094 9.394531 16.527344 10.585938 16.804688 10.875 C 17.738281 10.035156 18.640625 7.96875 18.976562 6.882812 Z M 18.976562 6.882812 " fill-opacity="1" fill-rule="nonzero"/></g><g clip-path="url(#eb9f9ff59d)"><path fill="#545454" d="M 18.976562 6.882812 C 18.640625 7.96875 17.738281 10.035156 16.804688 10.875 C 16.527344 10.582031 15.742188 9.394531 15.113281 8.210938 C 16.339844 7.652344 17.632812 7.203125 18.976562 6.882812 Z M 18.976562 6.882812 " fill-opacity="1" fill-rule="nonzero"/></g><g clip-path="url(#e169e474e6)"><path fill="#545454" d="M 17.734375 32.308594 C 18.300781 37.144531 18.050781 45.167969 17.816406 48.332031 C 16.675781 47.988281 15.574219 47.554688 14.523438 47.035156 C 16.035156 20.03125 10.542969 22.242188 10.023438 13.34375 C 9.972656 13.789062 3.5 27.605469 2.589844 29.355469 C 2.550781 28.832031 2.53125 28.300781 2.53125 27.761719 C 2.53125 20.414062 6.226562 13.925781 11.855469 10.054688 C 12.902344 12.625 14.324219 15.628906 15.355469 17.328125 C 17.152344 20.289062 17.3125 28.679688 17.734375 32.308594 Z M 17.734375 32.308594 " fill-opacity="1" fill-rule="nonzero"/></g><g clip-path="url(#f12c0516ff)"><path fill="#545454" d="M 10.023438 13.34375 C 10.542969 22.242188 16.035156 20.03125 14.523438 47.035156 C 13.628906 46.59375 12.769531 46.09375 11.949219 45.535156 C 12.1875 39.207031 10.746094 30.082031 9.058594 22.898438 C 8.449219 25.347656 5.566406 31.328125 3.757812 34.933594 C 3.132812 33.167969 2.734375 31.296875 2.589844 29.355469 C 3.5 27.605469 9.972656 13.789062 10.023438 13.34375 Z M 10.023438 13.34375 " fill-opacity="1" fill-rule="nonzero"/></g><path fill="#545454" d="M 9.058594 22.898438 C 10.746094 30.082031 12.1875 39.207031 11.949219 45.535156 C 10.976562 44.875 10.058594 44.132812 9.207031 43.324219 C 9.21875 38.265625 8.660156 32.304688 8.660156 32.304688 C 8.660156 32.304688 7.25 35.605469 5.6875 38.972656 C 4.910156 37.707031 4.261719 36.355469 3.757812 34.933594 C 5.566406 31.328125 8.449219 25.347656 9.058594 22.898438 Z M 9.058594 22.898438 " fill-opacity="1" fill-rule="nonzero"/><path fill="#545454" d="M 8.660156 32.308594 C 8.660156 32.308594 9.21875 38.265625 9.207031 43.324219 C 7.851562 42.035156 6.667969 40.574219 5.6875 38.972656 C 7.25 35.605469 8.660156 32.308594 8.660156 32.308594 Z M 8.660156 32.308594 " fill-opacity="1" fill-rule="nonzero"/><g clip-path="url(#124c5afaf8)"><path fill="#000000" d="M 45.386719 24.640625 C 44.847656 20.917969 43.328125 17.382812 40.996094 14.417969 L 40.980469 14.394531 C 40.296875 13.53125 39.542969 12.710938 38.738281 11.960938 L 38.597656 11.828125 L 38.597656 11.832031 C 37.9375 11.226562 37.230469 10.65625 36.5 10.132812 C 35.546875 9.457031 34.535156 8.859375 33.492188 8.347656 C 32.613281 7.917969 31.695312 7.542969 30.765625 7.238281 C 29.996094 6.984375 29.199219 6.773438 28.398438 6.605469 C 27.425781 6.40625 26.425781 6.269531 25.421875 6.207031 C 24.585938 6.152344 23.730469 6.144531 22.9375 6.1875 C 21.59375 6.25 20.25 6.441406 18.945312 6.757812 C 17.613281 7.078125 16.304688 7.527344 15.058594 8.09375 C 14.445312 8.375 13.847656 8.683594 13.273438 9.011719 C 12.769531 9.300781 12.269531 9.617188 11.785156 9.949219 C 5.910156 13.984375 2.402344 20.644531 2.402344 27.761719 C 2.402344 28.296875 2.421875 28.835938 2.460938 29.367188 C 2.601562 31.289062 3 33.175781 3.636719 34.976562 C 4.136719 36.390625 4.789062 37.757812 5.578125 39.039062 C 6.558594 40.644531 7.75 42.117188 9.117188 43.417969 C 9.972656 44.230469 10.902344 44.980469 11.878906 45.644531 C 12.703125 46.203125 13.574219 46.710938 14.46875 47.152344 C 15.535156 47.679688 16.648438 48.117188 17.777344 48.457031 L 17.816406 48.332031 L 17.777344 48.457031 C 19.347656 48.925781 20.972656 49.21875 22.613281 49.320312 C 23.066406 49.351562 23.535156 49.367188 24.007812 49.367188 C 25.238281 49.367188 26.472656 49.261719 27.671875 49.058594 C 28.769531 48.871094 29.859375 48.59375 30.914062 48.238281 C 32.207031 47.804688 33.460938 47.242188 34.644531 46.570312 C 35.308594 46.195312 35.960938 45.777344 36.585938 45.328125 C 38.226562 44.152344 39.691406 42.753906 40.949219 41.171875 C 44 37.324219 45.609375 32.6875 45.609375 27.761719 C 45.609375 26.714844 45.535156 25.664062 45.386719 24.640625 Z M 40.757812 14.53125 C 41.273438 16.707031 41.605469 18.808594 41.722656 20.621094 C 41.972656 24.550781 39.378906 31.574219 37.695312 35.65625 C 37.203125 33.625 34.957031 24.0625 35.4375 20.628906 C 35.570312 19.671875 36.4375 17.652344 37.351562 15.515625 C 37.820312 14.421875 38.304688 13.292969 38.699219 12.277344 C 39.4375 12.980469 40.128906 13.738281 40.757812 14.53125 Z M 34.132812 34.296875 C 35.078125 37.984375 36.054688 41.796875 36.375 45.164062 C 35.828125 45.550781 35.261719 45.914062 34.6875 46.246094 C 34.390625 43.457031 33.394531 39.984375 32.34375 36.3125 C 30.742188 30.730469 29.089844 24.957031 29.554688 20.625 C 29.625 19.972656 30.171875 18.71875 30.804688 17.261719 C 31.867188 14.824219 33.3125 11.503906 33.550781 8.664062 C 34.492188 9.136719 35.40625 9.683594 36.273438 10.292969 C 35.574219 12.554688 34.410156 15.078125 33.476562 17.109375 C 32.722656 18.738281 32.132812 20.023438 32.050781 20.59375 C 31.535156 24.171875 32.796875 29.089844 34.132812 34.296875 Z M 23.769531 26.320312 C 22.09375 23.429688 22.75 19.136719 23.402344 17.058594 C 23.863281 15.589844 24.898438 13.882812 25.902344 12.234375 C 27.09375 10.269531 28.222656 8.410156 28.480469 6.886719 C 29.1875 7.039062 29.894531 7.226562 30.578125 7.449219 C 30.28125 9.300781 29.25 11.148438 28.160156 13.097656 C 26.253906 16.5 24.289062 20.015625 25.769531 24.191406 C 27.953125 30.34375 30.925781 41.769531 30.746094 48.023438 C 29.777344 48.34375 28.78125 48.597656 27.777344 48.773438 C 27.75 46.558594 27.429688 32.644531 23.769531 26.320312 Z M 26.011719 24.105469 C 24.570312 20.042969 26.507812 16.578125 28.382812 13.226562 C 29.480469 11.265625 30.515625 9.414062 30.824219 7.53125 C 31.667969 7.816406 32.5 8.15625 33.300781 8.542969 C 33.09375 11.359375 31.636719 14.707031 30.566406 17.160156 C 29.898438 18.695312 29.371094 19.90625 29.296875 20.601562 C 28.828125 24.980469 30.488281 30.777344 32.09375 36.382812 C 33.160156 40.09375 34.164062 43.601562 34.445312 46.386719 C 33.351562 47 32.195312 47.519531 31.007812 47.933594 C 31.15625 41.628906 28.191406 30.246094 26.011719 24.105469 Z M 25.25 6.453125 C 25 7.257812 24.054688 8.824219 23.054688 10.476562 C 21.757812 12.613281 20.292969 15.039062 19.847656 16.59375 C 18.773438 20.347656 19.6875 27.628906 20.410156 29.554688 C 22.027344 33.867188 22.773438 45.832031 22.503906 49.054688 C 20.960938 48.949219 19.429688 48.675781 17.953125 48.238281 C 18.167969 45.203125 18.433594 37.195312 17.863281 32.292969 C 17.765625 31.449219 17.683594 30.367188 17.585938 29.113281 C 17.28125 25.082031 16.859375 19.558594 15.464844 17.257812 C 14.492188 15.660156 13.113281 12.796875 12.015625 10.101562 C 12.425781 9.820312 12.851562 9.554688 13.28125 9.304688 C 14.386719 11.707031 15.894531 14.34375 16.832031 14.9375 L 16.910156 14.984375 L 16.980469 14.925781 C 17.746094 14.320312 19.152344 12.644531 20.566406 10.664062 C 21.652344 9.136719 22.847656 7.265625 23.046875 6.441406 C 23.757812 6.40625 24.507812 6.410156 25.25 6.453125 Z M 16.710938 10.964844 L 16.796875 11.054688 L 16.890625 10.972656 C 17.792969 10.160156 18.699219 8.183594 19.078125 6.992188 C 20.289062 6.703125 21.535156 6.523438 22.777344 6.453125 C 22.332031 7.976562 18.535156 13.292969 16.894531 14.667969 C 15.996094 14.007812 14.53125 11.410156 13.503906 9.175781 C 14.003906 8.890625 14.527344 8.625 15.054688 8.378906 C 15.664062 9.507812 16.421875 10.660156 16.710938 10.964844 Z M 15.292969 8.273438 C 16.414062 7.769531 17.585938 7.363281 18.78125 7.0625 C 18.402344 8.191406 17.609375 9.898438 16.816406 10.6875 C 16.515625 10.320312 15.863281 9.332031 15.292969 8.273438 Z M 11.796875 10.25 C 12.898438 12.941406 14.273438 15.796875 15.242188 17.394531 C 16.605469 19.640625 17.023438 25.128906 17.332031 29.136719 C 17.425781 30.390625 17.507812 31.476562 17.609375 32.324219 C 18.171875 37.175781 17.914062 45.09375 17.699219 48.160156 C 16.664062 47.839844 15.640625 47.4375 14.65625 46.957031 C 15.652344 28.996094 13.558594 24 11.875 19.984375 C 11.042969 17.996094 10.324219 16.28125 10.152344 13.335938 L 9.894531 13.328125 C 9.804688 13.816406 4.140625 25.945312 2.691406 28.875 C 2.671875 28.503906 2.660156 28.132812 2.660156 27.761719 C 2.660156 20.785156 6.074219 14.25 11.796875 10.25 Z M 2.722656 29.382812 C 3.503906 27.863281 8.796875 16.625 9.9375 13.925781 C 10.167969 16.570312 10.851562 18.207031 11.640625 20.082031 C 13.308594 24.066406 15.382812 29.019531 14.40625 46.832031 C 13.605469 46.429688 12.824219 45.972656 12.082031 45.46875 C 12.3125 38.882812 10.742188 29.488281 9.1875 22.867188 L 9.0625 22.351562 L 8.9375 22.867188 C 8.300781 25.40625 5.222656 31.71875 3.78125 34.601562 C 3.210938 32.921875 2.855469 31.167969 2.722656 29.382812 Z M 8.785156 32.296875 L 8.738281 31.789062 L 8.539062 32.257812 C 8.527344 32.289062 7.175781 35.449219 5.671875 38.695312 C 4.960938 37.507812 4.363281 36.246094 3.898438 34.941406 C 5.210938 32.328125 8.164062 26.304688 9.046875 23.417969 C 10.546875 29.929688 12.023438 38.90625 11.828125 45.292969 C 10.949219 44.683594 10.109375 44 9.332031 43.265625 C 9.34375 38.273438 8.792969 32.355469 8.785156 32.296875 Z M 5.832031 38.960938 C 7.023438 36.394531 8.132812 33.847656 8.574219 32.828125 C 8.703125 34.335938 9.070312 38.945312 9.078125 43.015625 C 7.835938 41.800781 6.742188 40.4375 5.832031 38.960938 Z M 22.761719 49.074219 C 23.027344 45.820312 22.277344 33.800781 20.652344 29.464844 C 19.941406 27.558594 19.035156 20.371094 20.097656 16.664062 C 20.53125 15.140625 21.988281 12.734375 23.273438 10.609375 C 24.347656 8.832031 25.28125 7.292969 25.511719 6.46875 C 26.425781 6.535156 27.339844 6.65625 28.226562 6.835938 C 27.984375 8.308594 26.863281 10.152344 25.679688 12.101562 C 24.671875 13.761719 23.628906 15.480469 23.160156 16.980469 C 22.492188 19.101562 21.824219 23.480469 23.546875 26.449219 C 27.199219 32.757812 27.5 46.746094 27.523438 48.820312 C 26.367188 49.011719 25.1875 49.109375 24.007812 49.109375 C 23.585938 49.109375 23.167969 49.097656 22.761719 49.074219 Z M 36.617188 44.988281 C 36.277344 41.640625 35.316406 37.875 34.382812 34.230469 C 33.054688 29.050781 31.796875 24.15625 32.304688 20.632812 C 32.382812 20.097656 32.96875 18.824219 33.707031 17.214844 C 34.636719 15.199219 35.785156 12.707031 36.492188 10.449219 C 37.191406 10.953125 37.867188 11.503906 38.496094 12.089844 C 38.097656 13.125 37.597656 14.289062 37.117188 15.414062 C 36.191406 17.570312 35.320312 19.605469 35.183594 20.59375 C 34.640625 24.476562 37.421875 35.628906 37.542969 36.101562 L 37.636719 36.476562 L 37.785156 36.117188 C 39.464844 32.085938 42.242188 24.707031 41.980469 20.605469 C 41.871094 18.933594 41.582031 17.015625 41.136719 15.023438 C 43.242188 17.847656 44.617188 21.160156 45.125 24.636719 C 43.832031 27.28125 39.792969 36.082031 40.710938 41.054688 C 39.523438 42.542969 38.148438 43.863281 36.617188 44.988281 Z M 40.925781 40.777344 C 40.644531 38.910156 41.003906 36.320312 42 33.078125 C 42.984375 29.871094 44.351562 26.828125 45.1875 25.097656 C 45.296875 25.976562 45.351562 26.871094 45.351562 27.761719 C 45.351562 32.53125 43.824219 37.023438 40.925781 40.777344 Z M 40.925781 40.777344 " fill-opacity="1" fill-rule="nonzero"/></g><g clip-path="url(#46c020f4c1)"><path fill="#ffffff" d="M 13.117188 18.15625 C 11.605469 18.15625 10.375 19.386719 10.375 20.898438 L 10.375 34.597656 C 10.375 36.109375 11.605469 37.335938 13.117188 37.335938 L 30.925781 37.335938 C 32.4375 37.335938 33.667969 36.109375 33.667969 34.597656 L 33.667969 30.601562 L 38.289062 34.296875 C 38.539062 34.496094 38.839844 34.597656 39.144531 34.597656 C 39.347656 34.597656 39.550781 34.550781 39.742188 34.460938 C 40.214844 34.234375 40.515625 33.753906 40.515625 33.226562 L 40.515625 22.265625 C 40.515625 21.742188 40.214844 21.257812 39.742188 21.03125 C 39.265625 20.804688 38.699219 20.867188 38.289062 21.195312 L 33.667969 24.894531 L 33.667969 20.898438 C 33.667969 19.386719 32.4375 18.15625 30.925781 18.15625 Z M 13.117188 18.15625 " fill-opacity="1" fill-rule="nonzero"/></g><g fill="#ffffff" fill-opacity="1"><g transform="translate(50.989745, 38.797561)"><g><path d="M 0.0664062 -20.949219 L 0.0664062 -24.671875 L 10.539062 -24.671875 L 10.539062 -20.949219 L 7.117188 -20.949219 L 7.117188 0 L 3.492188 0 L 3.492188 -20.949219 Z M 0.0664062 -20.949219 "/></g></g></g><g fill="#ffffff" fill-opacity="1"><g transform="translate(67.002449, 38.797561)"><g><path d="M 10.070312 -29.875 L 7.417969 -26.855469 L 4.800781 -26.855469 L 6.546875 -29.875 Z M 0.335938 0 L 4.0625 -24.671875 L 8.492188 -24.671875 L 12.21875 0 L 8.695312 0 L 8.023438 -5.035156 L 4.53125 -5.035156 L 3.859375 0 Z M 6.480469 -16.652344 L 6.378906 -17.289062 L 6.175781 -17.289062 L 6.074219 -16.652344 L 5.035156 -8.863281 L 7.519531 -8.863281 Z M 6.480469 -16.652344 "/></g></g></g><g fill="#ffffff" fill-opacity="1"><g transform="translate(84.96219, 38.797561)"><g><path d="M 7.921875 -24.671875 L 11.445312 -24.671875 L 7.6875 0 L 4.0625 0 L 0.300781 -24.671875 L 3.828125 -24.671875 L 5.640625 -11.113281 L 5.773438 -10.070312 L 5.976562 -10.070312 L 6.109375 -11.113281 Z M 7.921875 -24.671875 "/></g></g></g><g fill="#ffffff" fill-opacity="1"><g transform="translate(102.116258, 38.797561)"><g><path d="M 10.777344 -5.070312 C 10.742188 -4.0625 10.539062 -3.15625 10.171875 -2.382812 C 9.871094 -1.710938 9.398438 -1.074219 8.726562 -0.570312 C 8.058594 -0.0351562 7.148438 0.269531 5.941406 0.269531 C 4.734375 0.269531 3.792969 -0.0351562 3.121094 -0.570312 C 2.449219 -1.074219 2.015625 -1.710938 1.710938 -2.382812 C 1.34375 -3.15625 1.140625 -4.0625 1.109375 -5.070312 L 1.109375 -19.605469 C 1.140625 -20.578125 1.34375 -21.484375 1.710938 -22.257812 C 2.015625 -22.929688 2.449219 -23.597656 3.121094 -24.101562 C 3.792969 -24.605469 4.734375 -24.941406 5.941406 -24.941406 C 7.148438 -24.941406 8.058594 -24.605469 8.726562 -24.101562 C 9.398438 -23.597656 9.871094 -22.929688 10.171875 -22.257812 C 10.539062 -21.484375 10.742188 -20.578125 10.777344 -19.605469 Z M 7.148438 -19.605469 C 7.148438 -20.277344 7.015625 -20.746094 6.679688 -21.148438 C 6.511719 -21.316406 6.242188 -21.417969 5.941406 -21.417969 C 5.304688 -21.417969 5 -20.949219 4.867188 -20.511719 C 4.765625 -20.242188 4.734375 -19.941406 4.734375 -19.605469 L 4.734375 -5.070312 C 4.734375 -4.363281 4.902344 -3.894531 5.238281 -3.523438 C 5.40625 -3.355469 5.640625 -3.257812 5.941406 -3.257812 C 6.578125 -3.257812 6.882812 -3.660156 7.015625 -4.164062 C 7.117188 -4.398438 7.148438 -4.699219 7.148438 -5.070312 Z M 7.148438 -19.605469 "/></g></g></g><g fill="#ffffff" fill-opacity="1"><g transform="translate(119.40461, 38.797561)"><g><path d="M 1.34375 -24.671875 L 4.96875 -24.671875 L 4.96875 -3.355469 L 9.769531 -3.355469 L 9.769531 0 L 1.34375 0 Z M 1.34375 -24.671875 "/></g></g></g><g fill="#ffffff" fill-opacity="1"><g transform="translate(134.712351, 38.797561)"><g><path d="M 0.335938 0 L 4.0625 -24.671875 L 8.492188 -24.671875 L 12.21875 0 L 8.695312 0 L 8.023438 -5.035156 L 4.53125 -5.035156 L 3.859375 0 Z M 6.480469 -16.652344 L 6.378906 -17.289062 L 6.175781 -17.289062 L 6.074219 -16.652344 L 5.035156 -8.863281 L 7.519531 -8.863281 Z M 6.480469 -16.652344 "/></g></g></g><g clip-path="url(#2437bd7628)"><g clip-path="url(#6f3b364244)"><g clip-path="url(#8e5c8d701e)"><path fill="#ffffff" d="M 18.300781 18.132812 C 18.40625 18.082031 18.464844 17.960938 18.433594 17.84375 L 16.527344 10.550781 C 16.5 10.445312 16.410156 10.367188 16.300781 10.363281 C 16.191406 10.355469 16.089844 10.421875 16.050781 10.523438 C 16.050781 10.523438 14.777344 13.808594 14.34375 14.972656 C 13.445312 14.09375 10.945312 11.746094 10.945312 11.746094 C 10.871094 11.679688 10.765625 11.660156 10.671875 11.699219 C 10.582031 11.738281 10.519531 11.828125 10.519531 11.929688 C 10.519531 11.929688 10.496094 16.289062 10.484375 17.523438 C 9.105469 17.214844 6.042969 16.703125 5.363281 16.667969 C 5.246094 16.664062 5.171875 16.675781 5.140625 16.683594 C 5.054688 16.714844 5.015625 16.769531 4.992188 16.808594 C 4.972656 16.847656 4.953125 16.90625 4.96875 16.984375 C 4.972656 17.011719 5.019531 17.109375 5.125 17.25 C 5.8125 18.140625 9.433594 22.234375 9.433594 22.234375 C 9.507812 22.316406 9.628906 22.34375 9.730469 22.292969 Z M 17.890625 17.769531 L 9.683594 21.753906 C 9.121094 21.113281 6.820312 18.507812 5.847656 17.339844 C 5.8125 17.296875 5.777344 17.253906 5.746094 17.214844 C 6.921875 17.359375 9.683594 17.835938 10.671875 18.085938 C 10.746094 18.105469 10.824219 18.089844 10.882812 18.042969 C 10.945312 18 10.984375 17.925781 10.984375 17.851562 C 10.992188 17.621094 11.015625 13.957031 11.023438 12.511719 C 11.925781 13.363281 13.988281 15.304688 14.261719 15.601562 C 14.324219 15.667969 14.417969 15.699219 14.503906 15.675781 C 14.59375 15.65625 14.664062 15.589844 14.691406 15.5 C 14.75 15.292969 15.738281 12.726562 16.238281 11.433594 L 17.890625 17.769531 " fill-opacity="1" fill-rule="evenodd"/></g></g></g><g clip-path="url(#02612c5c43)"><g clip-path="url(#55c8d0690f)"><g clip-path="url(#bff02727c7)"><g clip-path="url(#8e0a18fb96)"><path fill="#ffffff" d="M 9.027344 20.824219 L 10.660156 11.515625 L 18.03125 17.433594 Z M 9.027344 20.824219 " fill-opacity="1" fill-rule="nonzero"/></g></g></g></g><g clip-path="url(#d0af301a69)"><g clip-path="url(#99e3231c23)"><g clip-path="url(#5cd78053dd)"><path fill="#ffffff" d="M 5.792969 17.019531 L 9.621094 21.867188 L 14.464844 18.035156 Z M 5.792969 17.019531 " fill-opacity="1" fill-rule="nonzero"/></g></g></g><g clip-path="url(#f8aa731e27)"><g clip-path="url(#d3b4695c14)"><g clip-path="url(#dd18467cea)"><path fill="#ffffff" d="M 14.554688 18.148438 L 9.710938 21.976562 C 9.628906 22.039062 9.542969 22.03125 9.496094 21.964844 L 5.664062 17.121094 C 5.628906 17.074219 5.621094 17 5.65625 16.945312 C 5.664062 16.890625 5.738281 16.855469 5.796875 16.863281 L 14.46875 17.878906 C 14.527344 17.886719 14.582031 17.917969 14.601562 17.980469 C 14.609375 18.054688 14.601562 18.109375 14.554688 18.148438 Z M 9.632812 21.652344 L 14.0625 18.148438 L 6.128906 17.21875 Z M 9.632812 21.652344 " fill-opacity="1" fill-rule="nonzero"/></g></g></g><g clip-path="url(#c73777592c)"><g clip-path="url(#ef36f3d11b)"><g clip-path="url(#0bc21cfc64)"><path fill="#ffffff" d="M 16.214844 10.800781 L 18.253906 17.554688 L 11.5 19.589844 Z M 16.214844 10.800781 " fill-opacity="1" fill-rule="nonzero"/><path fill="#ffffff" d="M 11.546875 19.746094 L 18.300781 17.707031 C 18.410156 17.675781 18.457031 17.589844 18.429688 17.5 L 16.390625 10.746094 C 16.371094 10.679688 16.308594 10.628906 16.234375 10.625 C 16.175781 10.59375 16.09375 10.644531 16.0625 10.699219 L 11.347656 19.492188 C 11.316406 19.550781 11.316406 19.621094 11.355469 19.683594 C 11.421875 19.734375 11.480469 19.765625 11.546875 19.746094 Z M 18.042969 17.421875 L 11.867188 19.289062 L 16.179688 11.246094 Z M 18.042969 17.421875 " fill-opacity="1" fill-rule="nonzero"/></g></g></g></svg>